<?xml version="1.0" standalone="no"?>
<!DOCTYPE svg PUBLIC "-//W3C//DTD SVG 20010904//EN"
 "http://www.w3.org/TR/2001/REC-SVG-20010904/DTD/svg10.dtd">
<svg version="1.0" xmlns="http://www.w3.org/2000/svg"
 width="2465.000000pt" height="377.000000pt" viewBox="0 0 2465.000000 377.000000"
 preserveAspectRatio="xMidYMid meet">
<metadata>
Created by potrace 1.16, written by Peter Selinger 2001-2019
</metadata>
<g transform="translate(0.000000,377.000000) scale(0.100000,-0.100000)"
fill="#000000" stroke="none">
<path d="M1080 3617 c-3 -3 -18 -8 -35 -11 -50 -9 -75 -18 -75 -27 0 -5 -7 -9
-15 -9 -9 0 -33 -11 -55 -25 -22 -14 -44 -25 -50 -25 -6 0 -23 -11 -38 -25
-15 -14 -33 -25 -40 -25 -15 0 -146 -128 -148 -144 -1 -6 -2 -16 -3 -22 0 -7
-10 -14 -21 -17 -12 -3 -20 -14 -20 -25 0 -11 -7 -23 -16 -26 -10 -4 -14 -12
-10 -22 3 -8 -1 -22 -9 -30 -8 -9 -15 -26 -15 -40 0 -13 -4 -24 -9 -24 -4 0
-11 -21 -15 -46 -3 -26 -12 -54 -19 -62 -9 -12 -9 -16 1 -19 14 -5 16 -33 2
-33 -11 0 -13 -94 -4 -152 4 -21 12 -38 18 -38 22 0 51 -43 55 -81 1 -4 16
-14 35 -23 21 -10 33 -23 32 -33 -1 -12 7 -19 24 -21 30 -4 51 -28 43 -49 -4
-9 2 -16 16 -20 12 -3 24 -17 28 -31 3 -14 12 -33 20 -42 8 -9 23 -35 33 -57
17 -40 17 -40 -1 -36 -10 3 -19 0 -19 -6 0 -6 -9 -11 -19 -11 -11 0 -23 -4
-26 -10 -3 -5 -15 -10 -25 -10 -10 0 -22 -9 -25 -20 -4 -12 -18 -23 -36 -27
-16 -3 -31 -14 -34 -24 -4 -11 -12 -20 -18 -20 -7 -1 -17 -2 -22 -3 -6 0 -56
-47 -111 -103 -55 -57 -105 -103 -112 -103 -6 0 -13 -6 -14 -12 0 -7 -2 -17
-3 -23 -2 -5 -3 -15 -4 -21 0 -7 -9 -14 -19 -17 -11 -2 -21 -17 -25 -34 -4
-20 -14 -32 -27 -36 -16 -4 -20 -11 -16 -25 5 -13 1 -22 -10 -26 -9 -3 -14
-13 -10 -21 3 -9 -3 -19 -15 -26 -15 -8 -18 -14 -9 -23 8 -10 5 -15 -11 -19
-17 -5 -20 -11 -15 -31 4 -16 1 -30 -9 -40 -8 -8 -15 -26 -15 -40 0 -14 -5
-28 -11 -32 -6 -3 -8 -17 -4 -32 4 -16 1 -28 -7 -33 -19 -12 -19 -529 0 -551
7 -9 10 -26 7 -40 -4 -16 -1 -29 8 -37 8 -6 13 -21 10 -32 -4 -13 3 -29 17
-44 13 -14 18 -25 12 -25 -20 0 -13 -28 9 -35 15 -5 18 -10 9 -20 -9 -10 -7
-16 9 -24 12 -7 18 -17 15 -26 -4 -9 2 -18 17 -23 14 -6 18 -11 11 -16 -15 -9
-4 -36 14 -36 8 0 17 -13 20 -30 4 -16 15 -32 25 -35 19 -6 23 -15 20 -45 -1
-8 15 -26 34 -39 41 -28 103 -88 153 -148 19 -24 43 -43 53 -43 11 0 29 -11
41 -25 12 -14 29 -25 39 -25 9 0 24 -11 33 -25 9 -14 21 -23 25 -20 5 2 14 -2
21 -11 7 -8 19 -13 26 -10 7 3 15 -2 18 -11 4 -9 14 -13 26 -10 13 3 20 0 20
-8 0 -21 19 -28 36 -15 12 10 18 9 33 -9 11 -12 30 -21 48 -21 16 0 33 -3 36
-6 4 -4 30 -9 59 -11 29 -2 57 -8 62 -14 13 -12 389 -12 402 1 5 5 33 10 62
11 29 1 55 6 58 11 3 4 18 8 34 8 16 0 31 4 34 8 3 4 28 14 56 22 28 8 56 20
62 27 6 7 17 13 25 13 23 0 64 32 62 49 -3 30 1 39 20 44 15 4 21 18 26 71 6
55 10 66 26 66 11 0 19 5 19 10 0 6 9 10 21 10 11 0 35 11 53 25 18 14 40 25
49 25 10 0 17 5 17 10 0 6 9 10 19 10 11 0 21 3 23 8 4 10 110 62 126 62 6 0
12 4 12 9 0 4 15 12 33 17 l32 10 5 224 5 225 25 3 c29 4 60 29 60 48 0 8 9
28 20 46 17 29 20 50 19 163 0 72 -4 150 -9 175 -25 125 -32 156 -41 164 -5 6
-9 24 -9 42 0 20 -6 34 -16 38 -8 3 -13 10 -10 15 4 5 3 11 -1 13 -11 4 -43
67 -43 83 0 7 -7 18 -15 25 -8 7 -13 16 -10 20 2 4 -7 17 -20 28 -14 12 -25
30 -25 39 0 10 -16 31 -35 46 -21 17 -35 37 -35 50 0 13 -12 30 -28 41 -15 10
-43 38 -62 62 -20 24 -44 43 -56 43 -11 1 -35 17 -54 36 -19 19 -42 35 -51 35
-9 0 -19 6 -22 13 -3 8 -36 29 -74 47 -37 18 -76 40 -85 48 -17 14 -17 16 0
31 10 9 27 30 38 46 10 17 26 36 36 43 9 7 15 19 12 27 -4 8 1 18 10 21 9 4
16 18 16 34 0 16 4 31 9 34 8 5 24 84 26 123 0 6 4 15 8 19 12 12 7 185 -7
239 l-13 49 45 23 c25 13 51 23 59 23 7 0 13 3 13 8 0 10 58 42 76 42 8 0 14
5 14 10 0 6 14 10 30 10 17 0 30 5 30 10 0 13 77 90 90 90 6 0 10 20 10 44 0
35 -4 46 -19 51 -11 3 -21 12 -24 19 -6 15 -75 50 -122 61 -49 13 -297 17
-320 6 -11 -5 -42 -12 -70 -15 -60 -5 -161 -28 -171 -39 -4 -4 -22 -7 -40 -7
-18 0 -36 -4 -39 -10 -3 -5 -19 -10 -36 -10 -16 0 -37 -4 -47 -10 -25 -14
-114 -41 -119 -36 -2 2 10 8 27 14 16 6 33 18 36 27 4 9 18 15 36 15 16 0 43
9 58 20 16 11 42 23 59 26 17 4 34 11 37 15 3 5 15 9 28 9 13 0 37 7 54 16 25
12 32 22 32 44 0 41 -10 60 -30 60 -10 0 -23 7 -30 15 -7 8 -27 15 -44 15 -18
0 -38 6 -44 13 -9 8 -70 13 -215 15 -111 2 -204 1 -207 -1z m326 -1676 c7 -8
122 -73 519 -296 140 -80 208 -121 206 -127 0 -5 -1 -177 -1 -383 l0 -375
-156 -76 -156 -77 -45 23 c-76 38 -117 37 -245 -5 -104 -34 -122 -37 -228 -37
-162 0 -277 36 -405 127 -120 85 -195 190 -256 356 -20 55 -23 82 -23 199 0
141 15 213 65 311 17 34 75 89 93 89 3 0 133 63 289 140 267 132 320 152 343
131z"/>
<path d="M10977 2765 c-445 -84 -757 -409 -824 -855 -20 -133 -7 -319 32 -455
30 -108 136 -325 201 -415 191 -264 488 -410 834 -410 249 0 446 63 628 199
212 161 344 381 386 648 26 162 18 300 -25 468 -22 86 -122 304 -182 397 -122
189 -338 341 -575 404 -123 33 -352 42 -475 19z m374 -619 c71 -16 130 -51
191 -112 54 -53 63 -78 79 -212 28 -228 -68 -440 -235 -522 -180 -88 -404 -56
-531 76 -62 64 -76 108 -82 259 -6 124 8 197 58 302 48 102 163 191 273 213
65 13 186 11 247 -4z"/>
<path d="M8390 2525 l0 -225 25 0 c23 0 25 -3 25 -50 l0 -50 240 0 240 0 0
-725 0 -725 25 0 c23 0 25 -3 25 -50 l0 -50 280 0 280 0 0 775 0 775 265 0
265 0 0 225 0 225 -25 0 c-23 0 -25 3 -25 50 l0 50 -810 0 -810 0 0 -225z"/>
<path d="M12980 1750 l0 -1000 25 0 c23 0 25 -3 25 -50 l0 -50 464 0 c491 0
551 4 699 50 480 149 743 597 662 1131 -17 115 -41 189 -107 328 -65 139 -122
223 -202 304 -112 112 -233 184 -386 231 -172 52 -226 56 -721 56 l-459 0 0
-1000z m1000 380 c140 -47 228 -129 251 -232 22 -97 17 -259 -10 -337 -55
-158 -174 -264 -336 -299 -81 -17 -276 -27 -284 -14 -5 9 -7 658 -2 876 l1 38
158 -5 c127 -3 170 -9 222 -27z"/>
<path d="M15060 1750 l0 -1000 25 0 c23 0 25 -3 25 -50 l0 -50 645 0 645 0 0
225 0 225 -25 0 c-23 0 -25 3 -25 50 l0 50 -335 0 -335 0 0 125 0 125 315 0
315 0 0 215 0 215 -25 0 c-23 0 -25 3 -25 50 l0 50 -290 0 -290 0 0 110 0 110
360 0 360 0 0 225 0 225 -25 0 c-23 0 -25 3 -25 50 l0 50 -645 0 -645 0 0
-1000z"/>
<path d="M23110 2525 l0 -225 25 0 c23 0 25 -3 25 -50 l0 -50 345 0 c190 0
345 -2 345 -4 0 -3 -166 -234 -370 -513 l-370 -508 0 -212 0 -213 25 0 c23 0
25 -3 25 -50 l0 -50 730 0 730 0 0 225 0 225 -25 0 c-23 0 -25 3 -25 50 l0 50
-350 0 -351 0 43 58 c23 31 88 120 145 197 57 77 151 205 210 285 59 80 152
206 207 280 55 74 110 149 123 167 22 31 23 38 23 247 l0 216 -25 0 c-23 0
-25 3 -25 50 l0 50 -730 0 -730 0 0 -225z"/>
<path d="M6068 2478 l-3 -173 -362 -3 -363 -2 0 -160 0 -160 30 0 30 0 0 110
0 110 360 0 360 0 0 225 0 225 -25 0 -25 0 -2 -172z"/>
<path d="M8190 1700 l0 -950 -278 0 -278 0 -364 549 c-201 302 -367 548 -370
546 -3 -2 -6 -249 -5 -549 l0 -546 -252 0 -253 0 0 -50 0 -50 280 0 280 0 2
544 3 545 257 -387 c141 -213 303 -457 360 -542 l103 -155 283 -3 282 -2 0
1000 0 1000 -25 0 -25 0 0 -950z"/>
<path d="M17170 1915 c0 -482 3 -735 10 -736 49 -6 45 -64 48 734 l2 737 -30
0 -30 0 0 -735z"/>
<path d="M18560 1700 l0 -950 -255 0 -255 0 0 -50 0 -50 285 0 285 0 0 1000 0
1000 -30 0 -30 0 0 -950z"/>
<path d="M19362 2639 c2 -8 97 -308 209 -666 112 -359 207 -653 212 -653 4 0
7 8 7 17 0 13 -186 616 -220 713 -5 14 -30 93 -55 175 -107 346 -132 419 -145
423 -8 3 -11 -1 -8 -9z"/>
<path d="M20787 2643 c-2 -5 -150 -432 -328 -950 l-324 -943 -349 0 -348 0 6
-25 c3 -13 11 -36 16 -50 l10 -25 361 2 362 3 18 55 c23 71 218 638 259 755
18 50 63 180 100 290 38 110 107 313 155 450 48 138 101 294 120 348 l33 97
-44 0 c-23 0 -45 -3 -47 -7z"/>
<path d="M22345 2423 c46 -125 199 -547 340 -938 142 -390 260 -716 262 -723
4 -9 -56 -12 -281 -12 -157 0 -286 -1 -286 -3 0 -2 7 -24 16 -50 l16 -47 299
0 299 0 -11 28 c-10 24 -120 325 -204 557 -18 50 -54 149 -80 220 -26 72 -80
220 -120 330 -40 110 -103 283 -140 385 -151 420 -172 474 -182 477 -6 2 27
-99 72 -224z"/>
<path d="M4475 2395 c17 -51 26 -146 21 -212 -14 -172 -103 -304 -255 -377
l-67 -32 71 -27 c38 -15 74 -27 78 -27 5 0 28 14 53 31 55 38 114 116 145 194
21 53 24 75 23 190 0 109 -4 139 -22 186 -22 56 -62 118 -47 74z"/>
<path d="M3458 2304 c-16 -5 -18 -22 -18 -174 0 -103 4 -171 10 -175 6 -3 19
-3 30 0 19 6 20 15 20 126 l0 120 178 -3 c145 -2 183 -6 211 -21 19 -9 36 -15
38 -13 7 7 -19 61 -40 85 -40 43 -78 52 -250 56 -89 2 -170 1 -179 -1z"/>
<path d="M21810 1861 c-50 -154 -97 -298 -105 -321 l-14 -41 46 3 c45 3 48 5
57 38 5 19 42 133 82 253 l73 219 -20 64 c-11 35 -22 64 -24 64 -2 0 -45 -126
-95 -279z"/>
<path d="M5980 1718 l0 -163 -302 2 c-167 0 -311 -1 -321 -4 -16 -4 -17 -19
-15 -181 l3 -177 25 0 25 0 3 128 3 127 314 0 c293 0 315 1 316 18 1 9 2 106
3 215 l1 197 -27 0 -28 0 0 -162z"/>
<path d="M3440 1381 l0 -181 30 0 30 0 0 131 0 131 188 -4 c164 -4 193 -7 235
-26 53 -23 56 -19 27 38 -13 26 -35 48 -63 62 -39 21 -57 23 -244 26 l-203 3
0 -180z"/>
<path d="M4526 1440 c3 -14 8 -73 11 -131 6 -121 -8 -184 -60 -282 -58 -111
-191 -204 -356 -250 -73 -20 -101 -21 -633 -25 l-558 -3 0 -50 0 -50 598 4
c536 3 603 5 657 21 142 42 267 126 328 220 97 149 112 358 37 510 -17 34 -27
50 -24 36z"/>
<path d="M6070 925 l0 -175 -620 0 -620 0 0 -50 0 -50 645 0 645 0 0 225 0
225 -25 0 -25 0 0 -175z"/>
<path d="M17797 1073 c-4 -3 -7 -78 -7 -165 l0 -158 -565 0 -565 0 0 -50 0
-50 595 0 595 0 0 215 0 215 -23 0 c-13 0 -27 -3 -30 -7z"/>
<path d="M21553 1067 c-5 -6 -31 -79 -59 -162 l-51 -150 -253 -5 -253 -5 -13
-35 c-7 -19 -13 -41 -13 -47 -1 -10 64 -13 293 -13 l293 0 53 160 53 160 345
0 344 0 -7 28 c-3 15 -12 38 -18 52 l-12 25 -348 2 c-252 1 -349 -2 -354 -10z"/>
</g>
</svg>
