<?xml version="1.0" standalone="no"?>
<!DOCTYPE svg PUBLIC "-//W3C//DTD SVG 20010904//EN"
 "http://www.w3.org/TR/2001/REC-SVG-20010904/DTD/svg10.dtd">
<svg version="1.0" xmlns="http://www.w3.org/2000/svg"
 width="522.000000pt" height="227.000000pt" viewBox="0 0 522.000000 227.000000"
 preserveAspectRatio="xMidYMid meet">
<metadata>
Created by potrace 1.16, written by Peter Selinger 2001-2019
</metadata>
<g transform="translate(0.000000,227.000000) scale(0.100000,-0.100000)"
fill="#000000" stroke="none">
<path d="M3550 1686 c0 -129 -4 -207 -10 -211 -6 -4 -24 5 -40 19 -99 83 -289
87 -433 8 -52 -28 -124 -92 -170 -152 l-27 -35 -18 25 c-147 213 -410 280
-640 163 -49 -25 -162 -126 -162 -145 0 -4 8 -8 18 -8 30 0 160 -79 185 -113
51 -68 76 -145 50 -154 -7 -3 -13 3 -13 12 0 24 -49 89 -87 115 -37 25 -132
65 -180 75 l-33 7 0 -112 c0 -81 4 -120 17 -148 9 -20 17 -39 17 -42 4 -22 73
-90 111 -110 25 -13 48 -27 51 -32 10 -15 -51 -8 -95 12 -50 23 -55 24 -45 8
5 -7 3 -8 -5 -4 -7 5 -10 10 -7 13 3 3 -16 30 -43 59 -65 71 -75 112 -76 299
0 115 3 149 13 147 22 -4 13 16 -20 44 -123 103 -350 133 -492 64 -22 -11 -32
-18 -21 -14 11 3 25 7 30 8 6 2 17 6 25 9 45 18 121 26 147 16 22 -8 25 -12
13 -21 -12 -8 -12 -9 3 -4 10 3 26 6 35 6 13 0 13 3 -4 16 -18 14 -18 15 6 8
13 -4 30 -13 38 -20 7 -8 21 -14 30 -14 15 1 14 3 -2 15 -11 8 -15 15 -9 15 7
0 18 -7 27 -15 8 -9 22 -12 33 -8 10 3 15 2 10 -2 -4 -5 -17 -9 -30 -10 -12
-2 -21 -8 -19 -14 1 -6 -9 -11 -23 -11 -21 0 -25 -5 -25 -29 0 -23 5 -30 23
-33 22 -3 22 -4 -5 -22 -15 -10 -47 -20 -70 -23 -24 -3 -57 -11 -75 -19 -17
-8 -39 -14 -50 -14 -26 0 -48 -16 -34 -24 6 -4 11 -3 11 2 0 5 31 15 70 22 55
10 78 11 110 1 22 -6 46 -9 52 -5 6 4 8 3 5 -3 -3 -5 10 -18 29 -28 20 -10 45
-32 56 -48 11 -15 23 -26 26 -23 2 3 -1 12 -8 21 -7 8 -9 15 -5 15 4 0 2 7 -5
15 -6 8 -9 18 -6 24 8 13 -21 22 -52 15 -25 -5 -25 -4 -9 9 9 8 17 18 17 22 0
4 -6 2 -14 -4 -9 -8 -16 -8 -20 -2 -4 6 3 15 14 21 11 6 20 8 20 4 0 -3 11 1
25 10 21 14 25 14 25 2 0 -8 -4 -18 -10 -21 -19 -12 -11 -37 9 -30 11 3 22 1
26 -4 3 -6 0 -9 -7 -6 -9 4 -14 -2 -14 -15 0 -13 5 -19 14 -15 9 3 10 0 3 -12
-6 -12 -4 -25 8 -42 9 -14 11 -22 4 -18 -17 11 -16 2 1 -32 61 -117 -6 -297
-129 -347 -25 -11 -45 -22 -45 -25 0 -11 -115 2 -154 17 -59 23 -95 52 -127
102 -16 25 -29 41 -29 35 0 -6 15 -32 34 -57 19 -24 32 -47 28 -49 -4 -2 -2
-3 4 -1 6 1 23 -6 39 -16 19 -13 23 -19 13 -24 -7 -3 -1 -4 13 -1 35 6 45 -6
17 -23 -18 -10 -19 -12 -3 -6 11 3 31 8 45 10 23 4 23 3 5 -6 -18 -9 -18 -10
5 -6 14 2 34 7 44 11 14 6 17 5 11 -4 -6 -10 0 -12 24 -6 20 4 37 2 46 -5 8
-6 19 -8 26 -4 7 4 26 8 43 10 17 1 25 0 18 -3 -6 -2 -9 -10 -6 -16 5 -8 2 -8
-7 1 -17 16 -29 15 -29 -1 0 -9 -10 -12 -30 -9 -17 2 -30 8 -30 13 0 5 -7 9
-16 9 -14 0 -15 -2 -3 -17 10 -12 10 -15 1 -9 -9 5 -12 -1 -10 -22 2 -26 6
-29 28 -27 14 2 40 -3 59 -11 18 -8 37 -11 42 -8 5 3 18 -1 28 -8 19 -13 19
-15 -10 -25 -33 -13 -37 -7 -11 14 18 15 17 15 -37 -2 -15 -4 -21 -3 -17 3 5
8 -14 22 -30 22 -14 0 6 -28 31 -42 l30 -17 -27 -1 c-16 0 -28 5 -28 11 0 5
-5 7 -11 4 -6 -4 -8 -13 -5 -21 8 -21 -11 -17 -45 8 -21 15 -32 19 -37 11 -4
-6 -16 -13 -27 -16 -11 -2 -6 -3 12 -1 19 1 37 -3 44 -12 10 -12 4 -13 -37 -9
-27 2 -73 9 -103 15 -29 5 -55 10 -57 10 -2 0 -4 7 -4 16 0 8 -5 12 -11 8 -13
-8 -60 16 -53 27 3 5 -1 7 -8 4 -18 -7 -73 41 -56 48 9 4 9 6 1 6 -26 2 -22
-19 9 -43 108 -82 237 -116 364 -97 41 6 91 20 112 30 20 11 51 26 69 35 32
15 115 93 166 156 15 19 26 30 23 24 -8 -17 75 -106 132 -143 85 -54 155 -74
267 -75 80 0 112 4 158 22 99 38 178 97 229 172 18 27 36 50 40 50 3 0 16 -15
28 -34 27 -45 122 -132 169 -155 66 -33 139 -52 208 -54 100 -3 156 10 212 48
27 19 52 31 55 28 3 -4 6 -19 6 -35 l0 -28 115 0 115 0 0 227 0 228 -27 -38
c-48 -67 -49 -60 -32 173 12 172 4 217 -49 287 l-37 48 -3 173 -3 172 -40 0
-39 0 0 -204z m-142 -378 c97 -46 157 -173 132 -278 -54 -226 -344 -272 -453
-72 -34 62 -42 118 -27 181 38 159 201 238 348 169z m-367 -131 c-35 -103
-107 -217 -163 -258 -54 -39 -135 -67 -225 -80 -67 -9 -133 -6 -121 6 3 3 40
14 84 25 156 39 224 81 283 175 23 35 41 68 41 72 0 5 -89 8 -198 8 l-197 0
-63 -38 c-68 -42 -104 -83 -126 -143 -8 -21 -15 -33 -15 -26 -1 7 -5 11 -10 8
-10 -6 1 32 27 97 18 44 92 116 153 148 41 22 57 24 215 25 194 2 228 11 299
80 40 39 40 39 43 14 1 -14 -11 -65 -27 -113z m-855 11 c4 -6 -1 -17 -11 -25
-11 -7 -16 -14 -12 -14 4 -1 11 -2 16 -3 5 0 13 -5 18 -10 5 -5 3 -6 -4 -2
-21 12 -15 -4 14 -38 38 -44 75 -131 87 -204 l11 -62 70 67 c90 87 196 141
319 163 115 20 82 -12 -116 -115 -127 -66 -165 -91 -220 -145 -59 -59 -68 -65
-80 -51 -7 9 -14 25 -16 36 -6 34 -80 212 -124 298 -24 45 -44 85 -46 90 -5
11 36 8 43 -3 8 -12 16 -12 35 0 13 9 13 11 0 20 -9 6 -10 10 -3 10 6 0 15 -5
19 -12z"/>
<path d="M4059 1557 c-103 -29 -184 -100 -214 -186 -19 -56 -19 -94 0 -157 31
-105 122 -168 295 -204 116 -24 157 -42 172 -75 13 -30 -9 -71 -48 -85 -73
-28 -198 0 -274 60 -22 17 -44 30 -49 28 -4 -1 -38 -36 -75 -76 l-67 -73 30
-25 c148 -124 376 -169 521 -102 120 54 180 141 180 258 0 76 -22 130 -70 178
-42 43 -86 64 -190 91 -47 13 -108 29 -137 37 -62 17 -85 38 -81 72 10 84 196
84 286 -1 l24 -22 49 55 c27 30 59 67 70 82 l20 28 -61 39 c-116 75 -276 108
-381 78z"/>
</g>
</svg>
