<?xml version="1.0" standalone="no"?>
<!DOCTYPE svg PUBLIC "-//W3C//DTD SVG 20010904//EN"
 "http://www.w3.org/TR/2001/REC-SVG-20010904/DTD/svg10.dtd">
<svg version="1.0" xmlns="http://www.w3.org/2000/svg"
 width="500.000000pt" height="500.000000pt" viewBox="0 0 500.000000 500.000000"
 preserveAspectRatio="xMidYMid meet">
<metadata>
Created by potrace 1.16, written by Peter Selinger 2001-2019
</metadata>
<g transform="translate(0.000000,500.000000) scale(0.100000,-0.100000)"
fill="#000000" stroke="none">
<path d="M2285 3653 c-201 -42 -324 -105 -462 -237 -342 -324 -344 -882 -5
-1213 362 -353 942 -321 1257 69 329 405 229 988 -215 1265 -36 22 -76 44 -90
48 -14 4 -30 11 -35 16 -6 4 -55 19 -109 33 -79 21 -120 26 -210 25 -61 -1
-120 -3 -131 -6z m321 -84 c408 -105 653 -488 579 -907 -21 -119 -22 -120 -80
-64 -28 27 -110 104 -183 172 l-133 123 -67 -66 c-37 -37 -72 -67 -77 -67 -5
0 -75 66 -157 148 -82 81 -153 147 -158 147 -7 0 -87 -92 -203 -235 -52 -64
-131 -160 -132 -160 -1 0 -16 20 -35 45 -19 25 -36 45 -40 45 -3 0 -53 -59
-110 -130 -57 -72 -107 -127 -111 -123 -18 20 -48 127 -59 211 -37 267 73 540
285 711 85 68 176 114 290 147 110 31 278 33 391 3z m-220 -853 c8 -3 28 1 44
9 16 8 38 15 49 15 14 0 21 8 24 28 2 15 5 -3 6 -39 1 -53 -3 -69 -19 -87 -12
-12 -25 -22 -30 -22 -6 0 -10 -27 -10 -60 l0 -60 30 0 c17 0 30 -4 30 -10 0
-6 -33 -10 -80 -10 -47 0 -80 4 -80 10 0 6 16 10 35 10 l35 0 0 60 c0 33 -4
60 -10 60 -5 0 -19 9 -30 20 -16 16 -20 32 -18 88 1 39 3 52 5 30 2 -20 11
-39 19 -42z m-124 -188 c42 -29 79 -62 82 -73 3 -11 24 -32 45 -48 36 -25 41
-26 53 -12 72 88 234 193 259 168 18 -18 -2 -41 -112 -128 l-110 -88 48 -34
c26 -19 69 -45 95 -59 56 -28 62 -37 48 -64 -15 -28 -39 -25 -75 9 -16 17 -57
50 -90 75 l-59 44 -56 -39 c-31 -22 -75 -58 -98 -80 -46 -43 -75 -48 -80 -12
-2 15 5 27 25 39 15 10 59 42 96 72 l68 54 -32 24 c-18 13 -40 24 -50 24 -24
0 -55 18 -127 74 -34 27 -59 52 -54 55 5 3 14 16 21 29 6 12 15 22 18 22 4 0
42 -24 85 -52z"/>
<path d="M948 1907 c-90 -30 -168 -119 -168 -193 0 -16 -5 -46 -10 -66 -13
-45 0 -102 32 -143 52 -66 187 -86 284 -41 136 63 188 258 101 377 -43 60
-160 92 -239 66z m139 -53 c43 -27 57 -62 57 -134 -2 -136 -89 -245 -195 -243
-77 1 -129 39 -129 94 0 18 3 20 12 11 12 -12 58 -17 58 -7 0 3 -9 15 -20 27
-31 33 -25 54 20 75 22 10 40 21 40 25 0 13 -44 38 -68 38 -20 0 -22 4 -17 23
11 35 79 98 116 107 42 10 96 3 126 -16z"/>
<path d="M2885 1871 c-33 -15 -76 -43 -94 -62 -67 -66 -92 -168 -51 -209 31
-31 50 -26 50 14 0 66 61 167 131 216 l30 22 -22 -54 c-11 -29 -27 -78 -36
-108 -17 -63 -29 -81 -39 -57 -3 9 -12 17 -20 17 -21 0 -17 -38 6 -52 17 -11
20 -24 20 -76 0 -57 3 -67 30 -93 34 -34 50 -32 43 6 -3 14 -2 45 1 70 l7 45
54 0 c99 0 226 64 260 131 37 71 6 154 -74 196 -37 19 -59 23 -140 23 -85 0
-103 -3 -156 -29z m247 -27 c61 -29 77 -103 36 -165 -40 -60 -218 -131 -218
-86 0 23 27 102 56 161 l28 59 -27 23 c-17 15 -22 24 -14 28 21 10 102 -2 139
-20z"/>
<path d="M1326 1847 c-32 -119 -66 -295 -61 -317 9 -42 25 -50 106 -53 64 -2
78 1 108 22 63 45 81 141 35 188 -23 23 -31 25 -83 20 l-58 -5 15 54 c14 50
14 55 -2 73 -21 23 -56 34 -60 18z"/>
<path d="M2145 1823 c-3 -21 -10 -54 -15 -74 l-10 -36 -58 1 c-66 1 -104 -18
-130 -65 -10 -16 -22 -29 -28 -29 -7 0 -15 -11 -18 -24 -3 -13 -20 -39 -37
-57 -42 -45 -52 -26 -34 66 13 67 13 71 -7 88 -37 31 -56 22 -63 -30 -10 -83
-70 -176 -91 -142 -3 6 -1 45 6 86 12 71 12 77 -5 89 -28 21 -52 17 -58 -8 -3
-13 -9 -54 -12 -93 -6 -62 -5 -73 15 -97 27 -35 69 -37 106 -4 l28 23 19 -23
c29 -38 72 -32 117 15 l36 38 16 -27 c9 -16 31 -33 52 -40 32 -10 41 -9 72 9
l36 21 25 -20 c39 -31 70 -25 115 20 46 46 48 47 48 22 0 -60 73 -82 121 -38
l27 25 23 -25 c26 -28 64 -31 97 -8 21 15 72 102 72 124 0 22 -31 9 -41 -17
-11 -31 -57 -83 -72 -83 -10 0 -5 73 8 136 8 37 -14 64 -51 64 -20 0 -24 -5
-24 -32 0 -55 -20 -110 -52 -142 -42 -41 -51 -21 -32 70 14 67 14 69 -7 87
-35 29 -59 22 -59 -16 0 -20 -9 -44 -21 -58 -11 -13 -30 -40 -42 -59 -13 -19
-31 -36 -41 -38 -17 -4 -18 1 -13 47 3 28 17 87 32 131 33 106 32 126 -5 145
-39 20 -38 20 -45 -22z"/>
<path d="M3330 1839 c0 -11 -14 -73 -31 -137 -33 -125 -34 -179 -3 -213 27
-30 71 -24 111 16 l35 35 19 -24 c38 -48 86 -53 141 -14 14 10 21 8 41 -10 37
-35 74 -29 119 19 36 38 40 40 45 20 8 -31 64 -61 114 -61 49 0 101 27 120 61
l12 22 11 -22 c31 -57 114 -77 183 -44 56 26 109 123 72 131 -11 2 -19 -6 -23
-21 -15 -61 -121 -112 -144 -70 -8 13 -1 21 39 41 79 39 103 113 47 140 -62
29 -144 -22 -214 -133 -29 -45 -56 -64 -91 -65 -71 0 -72 119 -2 156 35 18 36
18 42 -6 7 -29 37 -26 37 4 0 74 -144 63 -188 -15 -10 -16 -21 -29 -27 -29 -5
0 -22 -23 -37 -50 -19 -34 -34 -50 -48 -50 -17 0 -18 5 -13 50 5 40 3 51 -11
56 -9 3 -14 10 -11 14 11 18 -19 60 -51 70 -69 23 -160 -35 -211 -133 -19 -39
-52 -69 -65 -61 -14 9 -2 78 32 186 16 51 30 99 30 106 0 11 -56 52 -72 52 -5
0 -8 -9 -8 -21z"/>
</g>
</svg>
