<?xml version="1.0" standalone="no"?>
<!DOCTYPE svg PUBLIC "-//W3C//DTD SVG 20010904//EN"
 "http://www.w3.org/TR/2001/REC-SVG-20010904/DTD/svg10.dtd">
<svg version="1.0" xmlns="http://www.w3.org/2000/svg"
 width="541.000000pt" height="461.000000pt" viewBox="0 0 541.000000 461.000000"
 preserveAspectRatio="xMidYMid meet">
<metadata>
Created by potrace 1.16, written by Peter Selinger 2001-2019
</metadata>
<g transform="translate(0.000000,461.000000) scale(0.100000,-0.100000)"
fill="#000000" stroke="none">
<path d="M2632 3808 c-7 -7 -12 -30 -12 -51 l0 -39 -47 8 c-27 5 -82 9 -124 8
-69 0 -82 -4 -128 -33 -28 -18 -51 -37 -51 -42 0 -5 7 -27 16 -49 14 -33 26
-45 73 -68 52 -25 67 -27 195 -29 76 -1 141 -4 144 -8 3 -3 6 -25 5 -48 -1
-23 1 -32 4 -20 3 16 9 20 21 16 9 -4 19 -10 22 -13 3 -4 17 -10 32 -14 19 -4
29 -2 36 10 7 12 15 14 33 8 13 -4 29 -7 35 -6 7 1 15 -5 18 -14 5 -13 9 -14
21 -4 15 13 39 4 29 -11 -3 -6 10 -7 36 -3 l41 7 -11 -27 c-9 -24 -8 -26 8
-17 10 6 24 17 32 25 19 23 39 19 46 -9 3 -14 9 -23 14 -20 12 7 51 -35 44
-47 -5 -7 -1 -9 9 -5 9 3 19 2 22 -3 3 -4 -1 -11 -7 -13 -22 -9 35 -7 76 2 48
12 66 5 66 -24 0 -18 9 -25 44 -35 41 -11 45 -15 48 -48 3 -30 7 -36 31 -39
37 -5 44 17 22 72 -9 25 -14 49 -10 55 3 5 24 13 45 16 23 4 55 20 77 39 34
29 37 36 41 97 7 106 -19 136 -128 150 -20 2 -26 10 -32 45 -8 50 -24 81 -52
104 -26 22 -128 46 -226 55 -68 5 -77 4 -94 -15 -24 -26 -28 -26 -74 2 -20 13
-61 29 -90 35 -71 16 -284 16 -300 0z"/>
<path d="M2559 3126 c-89 -37 -224 -116 -297 -173 -37 -29 -110 -82 -162 -119
-105 -74 -156 -115 -275 -218 -99 -86 -365 -348 -365 -359 0 -9 118 77 136
100 6 7 29 28 51 46 22 17 96 79 163 137 213 181 514 390 687 476 152 76 191
103 178 123 -10 17 -55 12 -116 -13z"/>
<path d="M2780 3115 c-11 -13 -10 -20 6 -42 20 -27 41 -39 174 -103 47 -23
129 -71 183 -107 54 -36 101 -63 104 -59 4 4 0 41 -9 83 -18 87 -12 118 27
133 29 11 263 -4 277 -18 4 -4 17 -39 28 -77 11 -37 22 -70 26 -74 12 -11 -5
161 -17 175 -9 11 -48 14 -173 14 -202 0 -201 1 -194 -99 3 -39 1 -74 -4 -77
-5 -3 -77 46 -161 109 -193 146 -242 172 -267 142z"/>
<path d="M3587 2746 c-10 -72 -9 -231 3 -262 21 -53 69 -100 201 -193 31 -22
63 -51 73 -65 9 -14 21 -26 27 -26 16 0 79 -57 72 -64 -4 -3 -25 -6 -48 -6
-41 0 -102 -15 -118 -30 -5 -4 -1 -36 7 -71 52 -210 88 -815 55 -932 -12 -45
-30 -54 -129 -61 -39 -3 -76 -8 -81 -12 -23 -14 11 -25 87 -27 95 -2 126 13
155 76 14 32 19 65 19 142 0 120 -15 376 -35 615 -8 96 -16 189 -18 205 l-2
30 105 5 c93 4 105 7 108 24 5 22 -118 145 -198 199 -28 19 -87 65 -130 102
-107 92 -127 132 -137 285 -8 103 -9 110 -16 66z"/>
<path d="M3410 2419 c19 -17 47 -39 62 -48 37 -24 84 -85 99 -128 13 -40 7
-161 -13 -249 -11 -54 -5 -104 13 -104 39 0 74 229 50 325 -15 59 -60 126
-103 154 -18 11 -53 34 -78 51 -57 39 -75 38 -30 -1z"/>
<path d="M1628 1655 c-4 -452 -4 -447 21 -489 40 -64 138 -109 274 -126 128
-15 438 -29 477 -21 75 15 -1 25 -254 32 -317 9 -387 24 -449 98 -47 57 -50
81 -38 349 11 251 4 423 -18 445 -8 8 -12 -63 -13 -288z"/>
</g>
</svg>
