<?xml version="1.0" standalone="no"?>
<!DOCTYPE svg PUBLIC "-//W3C//DTD SVG 20010904//EN"
 "http://www.w3.org/TR/2001/REC-SVG-20010904/DTD/svg10.dtd">
<svg version="1.0" xmlns="http://www.w3.org/2000/svg"
 width="208.000000pt" height="177.000000pt" viewBox="0 0 208.000000 177.000000"
 preserveAspectRatio="xMidYMid meet">
<metadata>
Created by potrace 1.16, written by Peter Selinger 2001-2019
</metadata>
<g transform="translate(0.000000,177.000000) scale(0.100000,-0.100000)"
fill="#000000" stroke="none">
<path d="M823 1513 c-45 -9 -55 -53 -12 -53 12 0 19 -7 19 -20 0 -24 7 -22
-139 -50 -118 -22 -221 -55 -221 -70 0 -17 74 -23 204 -16 291 14 656 90 618
128 -14 14 -134 16 -284 5 l-108 -8 0 23 c0 14 9 27 21 33 12 6 22 15 23 20 1
10 -83 16 -121 8z"/>
<path d="M330 1232 c0 -6 -3 -17 -6 -25 -4 -11 10 -17 63 -26 37 -6 80 -14 95
-17 l27 -5 3 -152 c3 -173 10 -193 75 -243 56 -43 90 -46 408 -42 224 3 264 5
290 20 91 53 104 83 110 260 4 98 9 145 18 149 6 4 47 14 90 23 78 18 83 21
69 44 -7 10 -23 9 -82 -3 -79 -17 -100 -15 -100 10 0 13 -52 15 -440 15 -323
0 -440 -3 -440 -11 0 -12 -20 -10 -137 7 -28 4 -43 3 -43 -4z"/>
<path d="M1595 708 c-2 -7 -5 -24 -7 -38 -2 -17 -10 -26 -25 -28 -13 -2 -23
-7 -23 -12 0 -5 10 -10 23 -12 19 -3 23 -12 32 -76 9 -66 11 -71 23 -51 8 12
16 46 19 75 5 51 7 54 33 54 27 0 28 -2 23 -41 -12 -86 54 -130 146 -98 45 16
42 42 -5 33 l-36 -7 7 33 c7 34 -7 75 -30 84 -9 3 -11 -9 -7 -46 4 -45 3 -50
-14 -46 -22 4 -32 61 -14 83 9 11 1 15 -42 22 -51 8 -53 10 -58 43 -5 36 -36
55 -45 28z"/>
<path d="M1142 658 c-14 -14 2 -48 23 -48 12 0 15 -14 15 -60 0 -60 0 -60 -26
-54 -30 8 -28 -2 9 -43 50 -56 197 7 197 83 0 44 -32 97 -71 116 -39 20 -129
24 -147 6z"/>
<path d="M193 644 c-6 -17 5 -245 13 -253 9 -9 24 22 30 61 6 33 34 61 42 41
1 -4 15 -30 30 -58 l27 -50 85 3 c47 2 89 8 95 13 20 19 -17 34 -87 35 l-71 1
-23 44 c-13 24 -23 47 -24 50 0 3 14 23 30 44 17 21 30 41 30 44 -1 14 -16 29
-34 33 -14 2 -22 -5 -29 -27 -10 -31 -44 -75 -59 -75 -4 0 -8 19 -8 43 0 56
-32 90 -47 51z"/>
<path d="M408 648 c-13 -11 -46 -119 -51 -168 -2 -12 14 -16 77 -18 64 -2 79
-6 83 -20 14 -53 114 -73 158 -32 l22 20 10 -22 11 -23 10 25 c6 14 13 37 16
53 10 44 39 34 66 -23 13 -27 29 -50 37 -50 19 0 16 45 -7 93 -17 35 -19 46
-9 65 18 32 34 27 45 -15 11 -44 52 -78 83 -68 44 14 67 108 36 148 -16 22
-98 44 -103 28 -5 -14 -32 -14 -32 -1 0 6 -8 10 -18 10 -12 0 -26 -17 -42 -50
-28 -61 -50 -66 -50 -12 0 39 -14 62 -37 62 -9 0 -13 -19 -13 -70 0 -38 -4
-70 -8 -70 -5 0 -19 11 -32 25 -13 14 -27 25 -31 25 -4 0 -20 5 -36 11 -22 8
-24 12 -13 19 8 6 23 10 32 10 9 0 28 4 43 10 23 9 24 12 14 31 -9 18 -17 20
-51 15 -55 -9 -94 -31 -101 -57 -11 -42 7 -58 116 -103 42 -17 47 -30 17 -46
-38 -21 -82 -8 -108 30 -13 19 -26 34 -30 32 -4 -2 -14 24 -22 58 -9 36 -23
68 -35 76 -23 17 -27 17 -47 2z"/>
<path d="M1353 430 c-45 -18 -13 -56 38 -45 17 4 102 10 188 14 155 6 156 6
124 24 -27 14 -57 17 -180 16 -81 0 -158 -4 -170 -9z"/>
</g>
</svg>
