<?xml version="1.0" standalone="no"?>
<!DOCTYPE svg PUBLIC "-//W3C//DTD SVG 20010904//EN"
 "http://www.w3.org/TR/2001/REC-SVG-20010904/DTD/svg10.dtd">
<svg version="1.0" xmlns="http://www.w3.org/2000/svg"
 width="156.000000pt" height="72.000000pt" viewBox="0 0 156.000000 72.000000"
 preserveAspectRatio="xMidYMid meet">
<metadata>
Created by potrace 1.16, written by Peter Selinger 2001-2019
</metadata>
<g transform="translate(0.000000,72.000000) scale(0.100000,-0.100000)"
fill="#000000" stroke="none">
<path d="M280 654 c-92 -40 -148 -139 -136 -241 8 -69 23 -98 80 -153 61 -59
66 -61 147 -62 57 0 76 4 99 21 16 11 32 21 36 21 3 0 20 12 38 26 28 25 49
58 67 109 5 15 7 10 8 -17 1 -54 33 -73 109 -64 31 4 113 6 182 6 266 -1 337
-1 395 1 33 1 85 -2 115 -6 49 -6 58 -4 75 15 16 18 19 37 20 113 2 126 -2
131 -78 123 -34 -4 -71 -7 -82 -7 -24 0 -213 1 -237 2 -33 1 -92 1 -148 0 -49
0 -108 0 -195 2 -140 2 -155 -4 -155 -67 -1 -28 -2 -29 -12 -11 -22 41 -52 65
-79 65 -21 0 -40 -14 -80 -60 -29 -33 -66 -64 -82 -70 -34 -12 -31 -34 6 -38
27 -3 61 14 115 60 61 52 80 25 42 -59 -26 -58 -69 -83 -143 -83 -66 0 -103
16 -141 60 -103 123 -3 294 163 278 33 -3 62 -14 85 -31 39 -31 46 -32 46 -14
0 23 -70 79 -109 88 -54 13 -112 10 -151 -7z"/>
</g>
</svg>
