<?xml version="1.0" standalone="no"?>
<!DOCTYPE svg PUBLIC "-//W3C//DTD SVG 20010904//EN"
 "http://www.w3.org/TR/2001/REC-SVG-20010904/DTD/svg10.dtd">
<svg version="1.0" xmlns="http://www.w3.org/2000/svg"
 width="720.000000pt" height="319.000000pt" viewBox="0 0 720.000000 319.000000"
 preserveAspectRatio="xMidYMid meet">
<metadata>
Created by potrace 1.16, written by Peter Selinger 2001-2019
</metadata>
<g transform="translate(0.000000,319.000000) scale(0.100000,-0.100000)"
fill="#000000" stroke="none">
<path d="M3208 2945 c-122 -30 -262 -97 -357 -169 -41 -31 -79 -57 -85 -57
-13 -2 -34 -4 -122 -13 -111 -11 -244 -77 -244 -121 0 -8 29 -30 65 -51 61
-34 71 -36 133 -32 37 2 83 12 103 22 20 9 84 64 142 121 93 92 116 109 208
154 140 68 242 92 388 93 243 1 483 -99 635 -263 87 -94 140 -170 182 -265
l37 -84 244 0 c325 0 333 -4 333 -142 -1 -80 -10 -101 -54 -118 -17 -6 -137
-10 -305 -10 l-279 0 -6 -22 c-3 -13 -6 -42 -6 -64 l0 -41 83 -5 c45 -3 147
-6 226 -7 79 -1 152 -6 161 -11 10 -5 40 -37 66 -71 27 -34 67 -85 90 -113
l40 -51 102 -3 c56 -1 102 0 102 4 0 7 -136 182 -162 207 -33 32 -25 57 35
102 122 91 123 337 3 443 -20 17 -52 36 -73 41 -22 7 -150 11 -306 11 -211 0
-271 3 -282 13 -7 8 -28 38 -46 68 -93 155 -226 277 -391 357 -158 78 -225 94
-408 98 -138 3 -166 1 -252 -21z"/>
<path d="M1873 2430 c-43 -18 -45 -33 -45 -422 0 -204 2 -372 5 -374 6 -6 130
-12 145 -6 9 3 12 73 12 302 0 261 2 299 16 311 14 11 18 10 31 -6 21 -27 63
-121 140 -309 102 -251 134 -296 214 -298 37 -1 53 -20 75 -88 9 -30 21 -59
25 -65 5 -5 9 -14 9 -21 0 -6 21 -49 48 -94 26 -45 52 -90 57 -100 36 -61 199
-207 265 -237 14 -6 50 -22 80 -36 30 -14 72 -30 93 -36 20 -6 52 -15 70 -21
58 -17 311 -12 413 9 152 32 347 123 448 211 37 33 89 60 112 60 29 0 149 89
201 148 77 90 143 176 143 190 0 25 -20 10 -87 -63 -37 -41 -71 -75 -75 -75
-15 0 -8 37 11 59 89 103 107 129 93 143 -11 11 -16 7 -104 -90 -45 -50 -68
-64 -68 -41 0 6 27 45 60 86 33 42 60 79 60 84 0 25 -26 16 -58 -21 -20 -23
-53 -60 -73 -82 -34 -39 -59 -44 -59 -14 0 7 29 46 65 87 69 78 72 84 53 95
-6 4 -23 -7 -41 -27 -16 -19 -57 -65 -91 -104 -33 -38 -65 -77 -71 -86 -65
-111 -77 -139 -82 -187 -6 -50 -10 -57 -55 -93 -165 -130 -410 -202 -622 -184
-96 9 -247 52 -336 96 -121 60 -245 177 -309 292 -55 100 -77 292 -46 411 30
113 134 293 227 394 27 28 55 28 64 0 3 -12 4 -148 0 -302 -4 -170 -3 -286 3
-295 12 -18 147 -27 166 -11 10 8 13 28 10 68 -3 32 -7 197 -9 369 -3 197 -9
319 -16 332 -6 11 -20 26 -33 33 -30 17 -154 14 -198 -4 -38 -17 -127 -109
-165 -173 -84 -141 -164 -327 -179 -414 -7 -40 -37 -65 -54 -44 -4 4 -27 55
-50 113 -24 58 -60 146 -81 195 -21 50 -55 133 -75 185 -52 130 -58 137 -116
149 -59 13 -185 13 -216 1z"/>
</g>
</svg>
